PathFileType  4	(X/Y/Z) C:\Users\hpl\Documents\MyRepositories\mocap-processing\Data\treadmill\Subject1\Edited\
DataRate	CameraRate	NumFrames	NumMarkers	Units	OrigDataRate	OrigDataStartFrame	OrigNumFrames
   50.0		   50.0		   8		     34		 mm	   50.0	      2755	   3148
Frame#	Time	r_knee			r_shank(antsup)			r_ankle			r_calc			r_5meta			r_toe			L_knee			L_shank(ant_sup)			L_ankle			L_calc			L_5meta			L_toe			r_sh2			r_sh3			r_sh4			L_sh2			L_sh3			r_thigh1			r_thigh2			r_thigh3			r_thigh4			r_thigh5			L_thigh1			L_thigh2			L_thigh3			L_thigh4			r.ASIS			r.PSIS			L.ASIS			L.PSIS			C7			R_Shoulder			L_Shoulder			Sternum			
		X1	Y1	Z1	X2	Y2	Z2	X3	Y3	Z3	X4	Y4	Z4	X5	Y5	Z5	X6	Y6	Z6	X7	Y7	Z7	X8	Y8	Z8	X9	Y9	Z9	X10	Y10	Z10	X11	Y11	Z11	X12	Y12	Z12	X13	Y13	Z13	X14	Y14	Z14	X15	Y15	Z15	X16	Y16	Z16	X17	Y17	Z17	X18	Y18	Z18	X19	Y19	Z19	X20	Y20	Z20	X21	Y21	Z21	X22	Y22	Z22	X23	Y23	Z23	X24	Y24	Z24	X25	Y25	Z25	X26	Y26	Z26	X27	Y27	Z27	X28	Y28	Z28	X29	Y29	Z29	X30	Y30	Z30	X31	Y31	Z31	X32	Y32	Z32	X33	Y33	Z33	X34	Y34	Z34	

2755	55.08000	843.282	569.938	-404.083	850.747	477.480	-401.661	751.946	110.669	-448.657	665.668	74.387	-505.814	857.708	39.455	-419.479	902.542	75.353	-477.396	1041.904	608.009	-712.777	1041.074	485.799	-708.256	856.787	184.198	-683.175	770.459	179.237	-634.312	992.102	94.656	-637.740	943.894	68.143	-692.994	832.249	359.030	-412.036	775.564	486.896	-404.191	749.503	373.905	-411.800	962.791	529.447	-723.262	915.221	416.235	-716.894	893.196	897.624	-367.185	905.049	783.851	-371.508	859.902	745.842	-368.906	780.883	881.001	-368.408	798.945	766.113	-384.191	1002.872	886.151	-719.335	1071.803	766.391	-717.296	899.914	830.391	-743.991	972.740	714.191	-732.760	916.174	1094.326	-412.322	730.327	1121.633	-507.365	926.939	1105.141	-664.813	737.006	1118.735	-589.509	834.574	1611.834	-535.740	896.483	1567.080	-374.204	890.474	1570.029	-722.799	973.110	1527.884	-541.942
2756	55.10000	823.754	570.424	-404.881	829.176	478.061	-402.216	728.019	111.416	-449.275	641.038	75.522	-506.071	833.083	39.656	-419.370	877.547	74.760	-477.582	1042.582	609.170	-712.452	1052.432	486.586	-708.236	902.983	165.278	-680.354	819.834	149.553	-627.283	1050.026	92.393	-642.887	1002.665	61.074	-696.372	809.406	359.890	-412.293	754.241	488.451	-405.863	727.042	375.842	-413.566	968.475	521.424	-721.697	934.501	403.605	-714.181	885.799	896.485	-368.149	893.839	782.517	-372.343	847.569	745.859	-369.491	772.976	883.439	-369.124	786.621	767.634	-385.411	1002.670	887.822	-717.681	1072.065	768.226	-715.228	901.346	832.100	-745.577	973.761	715.758	-734.817	913.716	1093.565	-411.664	729.076	1122.985	-508.599	926.400	1105.934	-664.081	736.232	1120.253	-590.661	834.561	1612.450	-534.672	896.427	1567.651	-373.466	890.155	1570.894	-722.008	973.054	1528.168	-541.301
2757	55.12000	804.522	570.904	-405.794	807.971	479.008	-402.803	704.306	112.349	-449.713	616.518	76.963	-506.071	808.177	39.558	-419.484	853.097	73.917	-477.767	1040.275	606.713	-711.712	1062.194	486.026	-708.257	951.514	148.017	-678.116	873.218	121.962	-621.502	1107.694	93.382	-648.658	1061.709	57.042	-700.165	786.948	360.927	-412.713	733.174	490.101	-407.354	704.549	377.556	-414.675	973.631	510.704	-720.240	953.920	389.451	-711.787	878.596	895.218	-369.049	883.123	781.154	-373.148	835.718	746.276	-369.131	765.412	885.686	-369.719	775.258	769.683	-385.412	1000.995	886.246	-716.347	1069.730	766.419	-713.626	899.988	832.177	-747.255	971.400	714.582	-734.221	911.582	1092.095	-411.463	727.999	1123.121	-510.059	926.165	1105.270	-663.687	735.397	1120.245	-592.382	834.980	1611.844	-533.835	896.841	1567.104	-373.041	890.183	1570.734	-721.505	973.370	1527.404	-540.937
2758	55.14000	785.115	571.413	-406.635	786.344	479.910	-403.359	680.469	113.646	-449.969	592.144	78.503	-506.092	783.128	39.594	-419.363	828.576	73.446	-477.614	1034.395	601.319	-709.813	1068.189	484.560	-707.387	1001.577	133.844	-677.353	930.131	98.586	-617.202	1165.394	99.266	-655.217	1121.177	57.169	-704.179	764.290	362.150	-412.921	711.820	491.915	-408.530	682.186	379.521	-415.703	977.363	499.021	-717.912	972.633	375.458	-709.626	872.137	893.699	-370.167	872.810	779.495	-374.211	824.343	746.074	-370.268	758.752	887.781	-370.310	764.858	771.802	-385.787	997.701	881.420	-715.611	1064.641	760.284	-712.182	896.323	828.489	-746.561	966.525	709.989	-732.232	909.894	1090.277	-411.637	727.135	1122.019	-512.109	926.284	1102.857	-663.832	735.255	1119.001	-593.846	835.695	1610.183	-533.463	897.542	1565.226	-372.873	890.486	1569.501	-721.420	973.877	1525.525	-540.869
2759	55.16000	765.536	572.255	-407.531	764.148	481.318	-403.989	656.262	115.094	-450.386	567.968	80.396	-506.368	758.024	39.459	-419.277	804.147	73.007	-477.217	1026.288	593.779	-707.544	1071.229	482.939	-706.615	1051.927	124.695	-677.717	987.410	81.060	-615.503	1218.439	110.723	-659.870	1179.506	63.236	-707.565	740.942	363.670	-413.362	689.846	494.036	-409.904	659.033	382.143	-417.376	978.625	486.953	-714.698	989.550	364.264	-706.406	866.731	891.623	-371.212	863.382	777.603	-375.848	814.032	745.524	-372.643	753.308	889.706	-370.758	755.356	773.660	-387.030	993.012	873.364	-715.928	1057.173	750.747	-712.197	889.551	822.840	-744.041	956.235	702.530	-726.506	909.204	1088.020	-412.165	727.197	1119.896	-514.033	927.097	1099.106	-664.338	735.839	1116.383	-595.688	836.515	1607.560	-533.511	898.481	1562.171	-373.107	891.053	1567.448	-721.658	974.533	1522.490	-541.057
2760	55.18000	746.469	573.438	-408.687	742.189	483.078	-404.640	631.908	116.960	-450.887	543.770	82.911	-506.910	732.903	39.453	-419.311	779.707	72.350	-476.855	1016.425	583.929	-704.603	1071.123	480.149	-706.057	1098.234	121.061	-679.676	1040.392	69.260	-617.605	1265.633	128.723	-663.095	1233.125	75.996	-710.063	717.514	365.630	-413.549	668.143	496.597	-412.251	635.974	385.001	-419.471	979.427	473.088	-708.469	1004.235	353.561	-703.211	862.674	888.309	-371.940	854.759	774.260	-378.551	804.268	744.491	-375.192	749.102	890.968	-371.029	746.130	775.002	-387.151	986.867	862.491	-716.929	1047.340	737.360	-711.258	880.610	815.069	-739.697	944.116	693.029	-720.613	910.243	1084.915	-412.784	728.385	1116.681	-516.072	928.754	1094.396	-665.200	737.173	1112.707	-597.563	837.279	1603.770	-533.941	899.260	1557.918	-373.949	891.698	1564.380	-722.295	975.179	1518.706	-541.704
2761	55.20000	729.500	573.881	-409.886	722.584	483.988	-405.598	607.831	118.944	-452.043	519.759	85.376	-507.766	707.966	39.622	-419.451	755.305	71.537	-476.739	1005.384	574.437	-700.237	1071.022	478.274	-703.898	1137.181	122.844	-683.197	1086.107	63.339	-622.296	1303.272	150.161	-664.173	1277.885	94.000	-712.445	695.959	367.137	-414.283	648.855	498.742	-414.649	615.104	387.669	-421.519	981.036	462.282	-703.987	1017.825	345.858	-701.083	859.287	883.773	-372.298	846.199	769.595	-379.677	794.854	742.871	-376.043	745.919	891.143	-371.133	737.918	775.561	-387.754	980.063	850.115	-718.296	1035.166	722.835	-711.873	870.893	805.827	-734.883	929.490	682.485	-716.866	912.443	1080.382	-413.642	730.708	1112.206	-518.068	930.887	1088.939	-666.583	739.195	1107.924	-599.694	837.664	1599.071	-534.965	899.677	1552.882	-375.384	892.627	1560.385	-723.479	975.854	1514.207	-542.905
2762	55.22000	716.284	573.338	-410.565	707.456	483.588	-406.291	584.531	121.103	-452.526	496.047	88.923	-507.835	682.561	39.304	-419.469	731.178	70.679	-476.710	995.548	567.174	-698.234	1071.683	477.643	-698.897	1166.707	128.091	-683.456	1119.851	60.894	-625.985	1328.714	168.356	-661.793	1308.927	112.722	-712.880	678.760	368.033	-414.778	634.341	500.140	-415.406	597.994	389.760	-422.449	982.929	455.476	-702.521	1029.298	340.108	-701.591	856.645	878.981	-372.357	839.329	765.177	-380.111	787.034	740.925	-376.568	743.095	890.230	-371.412	731.349	775.218	-388.949	975.114	838.751	-720.349	1026.219	710.013	-712.910	864.617	798.596	-730.996	919.021	673.747	-712.577	915.524	1074.546	-414.959	733.621	1107.478	-519.624	932.712	1082.906	-668.020	741.575	1102.621	-601.744	837.970	1593.486	-536.812	899.762	1547.363	-377.325	893.138	1555.551	-725.203	976.744	1509.176	-544.719
